<?xml version="1.0" encoding="UTF-8"?>
<svg id="Layer_2" data-name="Layer 2" xmlns="http://www.w3.org/2000/svg" viewBox="0 0 581.96 92.26">
  <defs>
    <style>
      .cls-1 {
        fill: #71a433;
      }
      .cls-2 {
        fill: #1f4a7e;
      }
    </style>
  </defs>
  <g id="Layer_1-2" data-name="Layer 1">
    <path class="cls-2" d="M358.64,24.97h12.13v48.36h-12.13v-5.11c-2.37,2.25-4.74,3.87-7.13,4.87-2.38.99-4.96,1.49-7.75,1.49-6.24,0-11.65-2.42-16.2-7.27-4.56-4.84-6.84-10.87-6.84-18.07s2.2-13.59,6.62-18.36c4.41-4.77,9.76-7.16,16.07-7.16,2.9,0,5.63.55,8.17,1.64,2.54,1.1,4.9,2.74,7.06,4.93v-5.33ZM345.88,34.92c-3.75,0-6.87,1.33-9.35,3.98-2.48,2.65-3.72,6.05-3.72,10.2s1.26,7.62,3.79,10.31c2.53,2.7,5.64,4.04,9.33,4.04s6.97-1.33,9.48-3.98c2.51-2.65,3.77-6.13,3.77-10.42s-1.26-7.62-3.77-10.22c-2.51-2.61-5.69-3.91-9.52-3.91Z"/>
    <path class="cls-2" d="M378.85,24.97h12.14v5.56c2.07-2.28,4.38-3.99,6.92-5.11,2.54-1.13,5.3-1.69,8.3-1.69s5.75.74,8.19,2.22c2.43,1.48,4.39,3.64,5.87,6.49,1.93-2.84,4.29-5.01,7.09-6.49,2.8-1.48,5.86-2.22,9.18-2.22s6.46.8,9.07,2.4c2.61,1.6,4.48,3.69,5.63,6.27,1.14,2.58,1.71,6.77,1.71,12.58v28.36h-12.22v-24.53c0-5.48-.68-9.19-2.04-11.13-1.37-1.94-3.41-2.91-6.14-2.91-2.07,0-3.93.59-5.58,1.78-1.65,1.19-2.87,2.82-3.67,4.91-.8,2.09-1.2,5.45-1.2,10.07v21.82h-12.22v-23.42c0-4.33-.32-7.46-.96-9.4-.64-1.94-1.6-3.38-2.87-4.33-1.28-.95-2.82-1.42-4.63-1.42-2.02,0-3.85.6-5.5,1.8-1.65,1.2-2.88,2.88-3.7,5.04-.81,2.16-1.22,5.57-1.22,10.22v21.51h-12.14V24.97Z"/>
    <path class="cls-2" d="M465.15,5.05c2.13,0,3.95.77,5.47,2.31,1.52,1.54,2.28,3.41,2.28,5.6s-.75,4.01-2.26,5.53c-1.51,1.53-3.31,2.29-5.4,2.29s-4-.78-5.52-2.33c-1.52-1.56-2.28-3.44-2.28-5.67s.75-3.96,2.26-5.47c1.51-1.51,3.32-2.27,5.45-2.27ZM459.08,24.97h12.14v48.36h-12.14V24.97Z"/>
    <path class="cls-2" d="M513.87,24.97h12.09v41.43c0,8.18-1.65,14.19-4.94,18.05-4.41,5.22-11.07,7.82-19.96,7.82-4.74,0-8.73-.59-11.96-1.78-3.23-1.18-5.96-2.93-8.18-5.22-2.22-2.3-3.87-5.09-4.93-8.38h13.38c1.19,1.36,2.71,2.39,4.58,3.09,1.87.7,4.07,1.04,6.62,1.04,3.26,0,5.88-.5,7.87-1.51,1.98-1.01,3.39-2.31,4.2-3.91.81-1.6,1.22-4.36,1.22-8.27-2.13,2.13-4.37,3.67-6.71,4.6-2.34.93-4.99,1.4-7.95,1.4-6.49,0-11.97-2.34-16.45-7.02-4.48-4.68-6.71-10.61-6.71-17.78,0-7.67,2.37-13.84,7.11-18.49,4.3-4.21,9.42-6.31,15.38-6.31,2.79,0,5.42.51,7.89,1.53,2.47,1.02,4.96,2.7,7.45,5.04v-5.33ZM501.29,35.05c-3.82,0-6.98,1.28-9.47,3.84-2.49,2.56-3.73,5.79-3.73,9.67s1.27,7.33,3.82,9.91c2.55,2.58,5.75,3.87,9.6,3.87s6.87-1.26,9.31-3.78c2.44-2.52,3.67-5.82,3.67-9.91s-1.23-7.3-3.69-9.82c-2.46-2.52-5.63-3.78-9.51-3.78Z"/>
    <path class="cls-2" d="M230.74,24.97h12.09v41.43c0,8.18-1.65,14.19-4.94,18.05-4.41,5.22-11.07,7.82-19.96,7.82-4.74,0-8.73-.59-11.96-1.78-3.23-1.18-5.96-2.93-8.18-5.22-2.22-2.3-3.87-5.09-4.93-8.38h13.38c1.19,1.36,2.71,2.39,4.58,3.09,1.87.7,4.07,1.04,6.62,1.04,3.26,0,5.88-.5,7.87-1.51,1.98-1.01,3.39-2.31,4.2-3.91.81-1.6,1.22-4.36,1.22-8.27-2.13,2.13-4.37,3.67-6.71,4.6-2.34.93-4.99,1.4-7.95,1.4-6.49,0-11.97-2.34-16.45-7.02-4.48-4.68-6.71-10.61-6.71-17.78,0-7.67,2.37-13.84,7.11-18.49,4.3-4.21,9.42-6.31,15.38-6.31,2.79,0,5.42.51,7.89,1.53,2.47,1.02,4.96,2.7,7.45,5.04v-5.33ZM218.16,35.05c-3.82,0-6.98,1.28-9.47,3.84-2.49,2.56-3.73,5.79-3.73,9.67s1.27,7.33,3.82,9.91c2.55,2.58,5.75,3.87,9.6,3.87s6.87-1.26,9.31-3.78c2.44-2.52,3.67-5.82,3.67-9.91s-1.23-7.3-3.69-9.82c-2.46-2.52-5.63-3.78-9.51-3.78Z"/>
    <path class="cls-2" d="M569.82,24.97h12.14v48.36h-12.14v-5.11c-2.37,2.25-4.74,3.87-7.13,4.87-2.38.99-4.96,1.49-7.74,1.49-6.25,0-11.65-2.42-16.21-7.27-4.55-4.84-6.83-10.87-6.83-18.07s2.2-13.59,6.61-18.36c4.41-4.77,9.77-7.16,16.07-7.16,2.9,0,5.62.55,8.17,1.64,2.55,1.1,4.9,2.74,7.06,4.93v-5.33ZM557.07,34.92c-3.75,0-6.87,1.33-9.35,3.98-2.48,2.65-3.72,6.05-3.72,10.2s1.26,7.62,3.79,10.31c2.52,2.7,5.63,4.04,9.32,4.04s6.97-1.33,9.48-3.98c2.51-2.65,3.77-6.13,3.77-10.42s-1.26-7.62-3.77-10.22c-2.51-2.61-5.68-3.91-9.52-3.91Z"/>
    <g>
      <path class="cls-1" d="M16.22,8.38c3.08.04,5.9.83,8.58,2.15,2.92,1.44,5.42,3.41,7.38,6.03,1.16,1.55,2.02,3.25,2.35,5.17.45,2.6-.2,4.94-1.81,7-1.61,2.06-3.27,4.08-4.77,6.23-2.3,3.3-4.33,6.75-5.89,10.46-1.31,3.12-2.28,6.33-2.62,9.71-.36,3.59,0,7.08,1.51,10.4,1.36,2.99,3.46,5.38,6.13,7.27.5.35,1.02.68,1.54,1,.15.09.18.16.08.32-.21.33-.4.67-.59,1.02-.08.14-.14.18-.31.09-3.54-2.04-6.85-4.41-9.92-7.11-2.45-2.15-4.71-4.48-6.77-7.01-3.67-4.49-6.61-9.42-8.61-14.87C.9,41.85-.01,37.32,0,32.64c.01-5.09,1.01-9.97,3.35-14.53,1.42-2.76,3.26-5.2,5.59-7.25,1.49-1.3,3.26-2.02,5.2-2.32.71-.11,1.43-.15,2.07-.16Z"/>
      <path class="cls-1" d="M55.19,78.08c-2.37,0-4.34-.15-6.3-.42-3.43-.47-6.75-1.34-9.98-2.56-2.99-1.13-5.89-2.48-8.56-4.25-3.09-2.06-5.34-4.81-6.44-8.4-1.07-3.5-.85-6.92.92-10.15,1.63-2.97,4.18-4.81,7.46-5.61,2.91-.71,5.73-.27,8.48.81,2.08.81,3.91,2.05,5.72,3.32,3.38,2.38,6.82,4.67,10.41,6.73,2.97,1.71,6.01,3.26,9.22,4.46,1.76.66,3.56,1.19,5.43,1.45,1.58.23,3.16.26,4.72-.17,2.38-.65,3.89-2.23,4.78-4.48.09-.23.23-.57.28-.7,0,0,.01-.01.02,0,.15.08.74.52.83.59,0,0,0,.01,0,.02,0,.04-.04.16-.07.25-1.18,3.83-3.04,7.29-5.74,10.27-2.42,2.68-5.29,4.74-8.58,6.22-2.48,1.12-5.07,1.85-7.76,2.24-1.74.26-3.49.41-4.87.38Z"/>
      <path class="cls-1" d="M28.26,0l.88.04c.99.08,1.99.15,2.98.27,3.42.41,6.75,1.21,10,2.33,4.98,1.71,9.64,4.03,13.98,7.01,1.8,1.24,3.58,2.52,5.14,4.08,1.63,1.64,2.92,3.5,3.64,5.71.51,1.55.71,3.14.25,4.74-.61,2.13-2.08,3.31-4.21,3.68-1.75.31-3.43-.09-5.06-.73-2.14-.85-3.99-2.16-5.77-3.58-3.08-2.45-6.23-4.81-9.49-7.02-4.45-3.02-9.04-5.81-13.99-7.95-2.77-1.2-5.62-2.16-8.61-2.63-2.43-.38-4.85-.4-7.24.29-1.51.43-2.89,1.14-4.11,2.14-.06.06-.13.12-.16.15-.01.01-.03.01-.04,0-.14-.1-.93-.66-1.34-.95-.01,0-.01-.03,0-.04,1.65-1.4,3.41-2.59,5.3-3.59,3.71-1.98,7.67-3.15,11.84-3.67.83-.1,1.66-.16,2.49-.23l.98-.04h.7c.42,0,.85,0,1.27,0h.57Z"/>
      <path class="cls-1" d="M80.73,47c.04,3.05-.28,6.05-1.19,8.97-.47,1.53-1.23,2.87-2.59,3.8-1.28.87-2.7,1.17-4.22,1.03-3.18-.3-5.72-1.87-7.87-4.14-1.76-1.85-3.03-3.99-3.67-6.46-.74-2.85-.42-5.59.98-8.2,1.34-2.52,2.55-5.11,3.49-7.81.86-2.45,1.5-4.95,1.72-7.55.17-1.99.06-3.97-.43-5.92-.92-3.71-3.06-6.63-5.92-9.08-.14-.12-.31-.28-.37-.32,0,0,0-.02,0-.03l.41-.47s.02-.01.03,0c.04.03.12.11.16.14,1.13.94,2.24,1.91,3.31,2.93,2.55,2.44,4.9,5.06,6.99,7.92,2.36,3.22,4.35,6.65,5.91,10.34,1.23,2.91,2.1,5.92,2.68,9.01.36,1.93.56,3.89.58,5.86Z"/>
    </g>
    <path class="cls-2" d="M249.73,24.19h11.61v31.54c0,2.72.3,4.64.89,5.76.59,1.13,1.57,2.03,2.93,2.7,1.36.67,3.01,1.01,4.94,1.01,2.04,0,3.79-.37,5.27-1.13,1.47-.75,2.49-1.71,3.06-2.86.56-1.16.85-3.37.85-6.64v-30.38h11.61v29.08c0,4.91-.35,8.31-1.03,10.21-.69,1.9-2,3.73-3.95,5.5-1.94,1.77-4.18,3.08-6.72,3.93-2.54.85-5.48,1.28-8.84,1.28-4.41,0-8.24-.81-11.51-2.44-3.26-1.62-5.6-3.66-7-6.1-1.41-2.44-2.11-6.57-2.11-12.38v-29.08Z"/>
    <path class="cls-2" d="M189.62,51.56h-38.37c.55,3.38,2.03,6.08,4.44,8.07,2.41,2,5.48,3,9.21,3,4.46,0,8.3-1.56,11.51-4.68l10.06,4.73c-2.51,3.56-5.51,6.19-9.01,7.9-3.5,1.71-7.66,2.56-12.47,2.56-7.47,0-13.55-2.36-18.25-7.07-4.7-4.71-7.04-10.61-7.04-17.7s2.34-13.29,7.02-18.09c4.68-4.8,10.55-7.2,17.61-7.2,7.5,0,13.59,2.4,18.29,7.2,4.7,4.8,7.04,11.14,7.04,19.01l-.04,2.28ZM177.67,42.15c-.79-2.65-2.35-4.81-4.67-6.48-2.33-1.66-5.02-2.49-8.09-2.49-3.33,0-6.25.93-8.76,2.8-1.58,1.17-3.04,3.22-4.38,6.17h25.9Z"/>
    <path class="cls-2" d="M297.49,25.61h10.18v5.96c1.1-2.35,2.57-4.13,4.39-5.35,1.83-1.22,3.83-1.83,6.01-1.83,1.54,0,3.15.41,4.83,1.22l-3.7,10.23c-1.39-.7-2.54-1.04-3.44-1.04-1.83,0-3.37,1.13-4.63,3.39-1.26,2.26-1.89,6.7-1.89,13.32l.04,2.31v19.15h-11.79V25.61Z"/>
    <path class="cls-2" d="M136.25,17.89l-9.65,9.65c-3.92-3.88-7.48-5.83-10.68-5.83-1.75,0-3.12.37-4.11,1.11-.99.74-1.49,1.66-1.49,2.77,0,.84.32,1.61.95,2.31.63.71,2.18,1.66,4.65,2.88l5.71,2.86c6.02,2.97,10.15,6,12.39,9.08,2.25,3.08,3.37,6.7,3.37,10.85,0,5.52-2.02,10.13-6.08,13.82-4.06,3.69-9.49,5.54-16.31,5.54-9.06,0-16.3-3.54-21.71-10.62l9.6-10.45c1.83,2.13,3.97,3.86,6.43,5.17,2.46,1.31,4.63,1.97,6.54,1.97,2.06,0,3.71-.49,4.97-1.49s1.88-2.13,1.88-3.43c0-2.4-2.26-4.74-6.8-7.03l-5.25-2.63c-10.05-5.06-15.08-11.4-15.08-19.02,0-4.91,1.89-9.11,5.69-12.59,3.79-3.48,8.63-5.23,14.53-5.23,4.04,0,7.83.89,11.4,2.66,3.56,1.77,6.58,4.31,9.05,7.63Z"/>
  </g>
</svg>
